<svg class="text-accentBlack lg:text-white" width="36" height="36" fill="none" xmlns="http://www.w3.org/2000/svg"><path d="M32.836 7.418h-6.328V4.254a3.168 3.168 0 00-3.164-3.164H12.656a3.168 3.168 0 00-3.164 3.164v3.164H3.164A3.168 3.168 0 000 10.582v21.164a3.168 3.168 0 003.164 3.164h29.672A3.168 3.168 0 0036 31.746V10.582a3.168 3.168 0 00-3.164-3.164zM11.602 4.254c0-.582.473-1.055 1.054-1.055h10.688c.581 0 1.054.473 1.054 1.055v3.164H11.602V4.254zm-9.493 6.328c0-.582.474-1.055 1.055-1.055h3.164v1.055a3.168 3.168 0 01-3.164 3.164H2.11v-3.164zm4.22 22.219H3.163a1.056 1.056 0 01-1.055-1.055v-3.164h1.055a3.168 3.168 0 013.164 3.164v1.055zm27.562-1.055c0 .582-.474 1.055-1.055 1.055h-3.164v-1.055a3.168 3.168 0 013.164-3.164h1.055v3.164zm0-5.273h-1.055a5.28 5.28 0 00-5.273 5.273v1.055H8.438v-1.055a5.28 5.28 0 00-5.274-5.273H2.11V15.856h1.055a5.28 5.28 0 005.274-5.274V9.527h19.124v1.055a5.28 5.28 0 005.274 5.273h1.055v10.618zm0-12.727h-1.055a3.168 3.168 0 01-3.164-3.164V9.527h3.164c.581 0 1.055.474 1.055 1.055v3.164z" fill="#fff"/><path d="M25.211 16.326a4.58 4.58 0 00-3.45-1.525c-1.484 0-2.784.686-3.761 1.984-.977-1.298-2.277-1.984-3.762-1.984a4.58 4.58 0 00-3.449 1.525c-.836.93-1.297 2.17-1.297 3.493 0 3.015 2.49 5.096 5.938 7.976.602.503 1.226 1.024 1.884 1.588a1.052 1.052 0 001.372 0c.659-.564 1.282-1.085 1.884-1.588 3.447-2.88 5.938-4.961 5.938-7.976 0-1.323-.46-2.564-1.297-3.493zm-5.993 9.85c-.396.33-.8.668-1.218 1.021-.418-.353-.822-.69-1.217-1.02-3.12-2.607-5.181-4.33-5.181-6.358 0-1.659 1.133-2.909 2.636-2.909 1.97 0 2.719 2.307 2.754 2.418a1.055 1.055 0 002.017-.003c.008-.024.753-2.415 2.753-2.415 1.503 0 2.636 1.25 2.636 2.909 0 2.028-2.06 3.75-5.18 6.357z" fill="#fff"/></svg>