<svg width="137" height="40" fill="none" xmlns="http://www.w3.org/2000/svg"><path fill-rule="evenodd" clip-rule="evenodd" d="M0 0h27.916v40H0V0zm4.024 35.973h19.855V4.028H4.024v31.945zM46.46 17.946h-1.727c-2.268-3.204-4.518-6.388-6.764-9.986h-.017v9.986h-1.908V4.022h1.728c2.268 3.182 4.515 6.343 6.74 9.923h.04V4.022h1.909v13.924zm4.537-5.51c.554-1.831 1.112-3.522 1.61-5.67h.04c.557 2.148 1.055 3.84 1.572 5.67h-3.222zm.913-8.414L47.1 17.946h2.068l1.21-3.8h4.2l1.092 3.8h2.667L53.9 4.022h-1.99zm8.673 13.924V5.89h-3.66V4.022h9.705V5.89H62.97v12.056h-2.387zm6.82-13.924h2.37v13.924h-2.37V4.022zm9.73 12.171c-2.49 0-3.365-2.745-3.365-5.41 0-2.565.994-5.012 3.364-5.012 2.367 0 3.358 2.447 3.358 5.012 0 2.665-.873 5.41-3.358 5.41zm0 1.989c3.638 0 5.904-3.24 5.904-7.4 0-3.897-2.502-7-5.905-7-3.4 0-5.913 3.103-5.913 7 0 4.16 2.271 7.4 5.913 7.4zm17.779-.236h-1.73c-2.27-3.204-4.517-6.388-6.762-9.986h-.02v9.986h-1.906V4.022h1.729c2.265 3.182 4.513 6.343 6.737 9.923h.041V4.022h1.912v13.924h-.001zm4.535-5.51c.558-1.831 1.112-3.522 1.613-5.67h.039c.557 2.148 1.053 3.84 1.569 5.67h-3.221zm.917-8.414l-4.813 13.924h2.07l1.21-3.8h4.199l1.094 3.8h2.664l-4.437-13.924h-1.987zm7.117 0h2.371v12.053h4.712v1.871h-7.083V4.022zm-62.488 25.57v5.748c-1.275.5-2.608.855-3.957.855-4.098 0-6.684-3.183-6.684-7.28 0-3.801 2.586-7.122 6.763-7.122 1.29 0 2.584.48 3.38 1.076l-.776 1.65c-.635-.394-1.632-.732-2.545-.732-2.544 0-4.277 2.01-4.277 5.172 0 3.3 1.99 5.247 4.04 5.247.633 0 1.173-.076 1.673-.337v-4.276h2.383zm8.537-5.686h-3.983v3.817h3.898v1.87h-3.898v4.492h4.694v1.873h-7.082V22.033h6.37v1.873zm7.358 10.3c-2.488 0-3.365-2.743-3.365-5.41 0-2.564.995-5.01 3.365-5.01 2.366 0 3.358 2.446 3.358 5.01 0 2.667-.877 5.41-3.357 5.41zm0 1.989c3.639 0 5.904-3.242 5.904-7.4 0-3.898-2.504-7.002-5.904-7.002-3.405 0-5.908 3.105-5.908 7.002 0 4.158 2.263 7.4 5.909 7.4zm17.36-6.602v5.747c-1.275.5-2.604.855-3.958.855-4.096 0-6.683-3.183-6.683-7.28 0-3.801 2.587-7.122 6.764-7.122 1.294 0 2.585.48 3.379 1.076l-.777 1.65c-.636-.394-1.625-.732-2.541-.732-2.55 0-4.28 2.01-4.28 5.172 0 3.3 1.99 5.247 4.04 5.247.638 0 1.172-.076 1.671-.337v-4.276h2.385zm4.58-5.687h1.05c1.41 0 2.207.812 2.207 2.246 0 1.867-1.132 2.702-2.267 2.761-.239.024-.797.045-.99.062v-5.07zm6.044 12.052l-2.81-5.766c1.532-.814 2.412-2.47 2.412-4.14 0-2.708-1.654-4.02-4.32-4.02h-3.719v13.926h2.393v-5.251H83.9l2.244 5.25h2.728zm3.937-5.51c.556-1.834 1.113-3.522 1.612-5.67h.04c.556 2.148 1.052 3.837 1.57 5.67h-3.222zm.914-8.415l-4.815 13.925h2.069l1.214-3.8h4.199l1.088 3.8h2.67L95.71 22.033h-1.987zm10.899 0h-3.72v13.925h2.388v-5.251h1.071c2.847 0 4.579-2.308 4.579-4.655 0-2.709-1.653-4.02-4.318-4.02zm-.335 6.881c-.248.023-.83.041-.997.058v-5.066h1.071c1.393 0 2.191.812 2.191 2.246 0 1.867-1.13 2.703-2.265 2.762zm15.71 7.044h-2.386v-6.701h-4.957v6.7h-2.36V22.034h2.36v5.35h4.957v-5.31h2.386v13.885zm2.285-13.925h2.372v13.925h-2.372V22.033zm13.109 2.527c-.578-.358-1.529-.774-2.448-.774-2.431 0-4.195 2.01-4.195 5.172 0 3.3 1.948 5.247 4.257 5.247a4.505 4.505 0 002.386-.697l.658 1.732c-.72.497-1.989.955-3.141.955-4.099 0-6.687-3.183-6.687-7.28 0-3.801 2.565-7.122 6.722-7.122 1.236 0 2.386.521 3.206 1.076l-.758 1.692z" fill="#CBC7D4"/></svg>