<svg width="114" height="40" fill="none" xmlns="http://www.w3.org/2000/svg"><g clip-path="url(#clip0)"><path d="M90.723 32.616c.307-.007.613.059.894.196.228.117.43.287.58.495.15.209.261.444.32.698.065.261.098.529.098.796.006.333-.046.665-.157.978-.091.261-.241.49-.443.685-.196.183-.43.32-.692.398a2.774 2.774 0 01-.893.13h-.744v2.897h-1.39v-7.273h2.427zm-.424 3.28a.876.876 0 00.672-.267c.19-.234.28-.528.254-.828a1.357 1.357 0 00-.221-.835.888.888 0 00-.744-.287h-.58v2.211l.62.007zm-7.821 1.782c0 .17.006.339.032.502.02.137.06.274.124.398.06.11.144.202.255.267.254.13.554.13.809 0a.7.7 0 00.248-.267c.065-.124.104-.261.124-.398.026-.17.032-.333.032-.502v-5.062h1.39v5.068c.013.392-.053.777-.183 1.142a1.824 1.824 0 01-.496.717 1.685 1.685 0 01-.704.36 3.824 3.824 0 01-.822.09 4.4 4.4 0 01-.822-.078 1.567 1.567 0 01-.705-.332 1.735 1.735 0 01-.496-.705 3.22 3.22 0 01-.182-1.194v-5.068h1.39l.006 5.062zm-8.663-2.955c.033-.418.144-.822.32-1.194a1.89 1.89 0 01.71-.776 2.908 2.908 0 012.486 0c.307.182.554.45.711.776a3.5 3.5 0 01.32 1.194 15.835 15.835 0 010 3.046 3.49 3.49 0 01-.32 1.194c-.15.326-.398.593-.71.776a3.055 3.055 0 01-2.486 0 1.709 1.709 0 01-.711-.776 3.412 3.412 0 01-.32-1.194 15.835 15.835 0 010-3.046zm1.35 2.766c.013.28.06.56.137.835a.95.95 0 00.287.47.91.91 0 00.992 0 .906.906 0 00.287-.47c.078-.274.124-.555.137-.835.02-.346.032-.757.032-1.246 0-.49-.013-.9-.032-1.24a3.656 3.656 0 00-.137-.835.999.999 0 00-.287-.476.91.91 0 00-.992 0 .899.899 0 00-.287.476 3.656 3.656 0 00-.137.835c-.02.34-.032.75-.032 1.24 0 .489.013.906.032 1.246zm-6.601-1.703c.28.02.554-.072.776-.248.183-.163.268-.443.268-.841 0-.672-.32-1.011-.966-1.005h-.652v2.1l.574-.006zm.594-3.17a1.86 1.86 0 011.35.463c.32.306.483.783.483 1.409.02.417-.079.828-.28 1.194-.19.313-.51.528-.868.593v.02c.286.026.554.15.763.359.189.254.293.567.3.887a8.5 8.5 0 01.026.443l.02.535c.013.385.032.685.058.887.02.17.111.32.254.418v.059h-1.506a.865.865 0 01-.137-.353 3.977 3.977 0 01-.04-.41l-.039-1.397a1.173 1.173 0 00-.195-.672.72.72 0 00-.62-.24h-.737v3.072H66.6v-7.267h2.558zm-6.843 1.735a1.287 1.287 0 00-.137-.385.83.83 0 00-.248-.294.553.553 0 00-.359-.117c-.333 0-.574.196-.724.587-.15.392-.222 1.044-.222 1.957 0 .437.013.829.04 1.18.019.307.065.607.136.901.046.209.15.404.287.568a.659.659 0 00.764.123.896.896 0 00.28-.215 1.12 1.12 0 00.215-.358 1.38 1.38 0 00.085-.516v-.743h-.913v-1.077h2.244v3.92h-1.024v-.671h-.02a1.534 1.534 0 01-.6.606c-.26.124-.554.19-.841.176a2.054 2.054 0 01-1.038-.234 1.573 1.573 0 01-.626-.724 4.055 4.055 0 01-.306-1.207 17.737 17.737 0 01-.079-1.664c-.006-.541.033-1.076.111-1.61.059-.405.19-.803.385-1.162.17-.294.411-.535.711-.698.346-.17.724-.248 1.109-.235.757 0 1.305.196 1.637.594.333.398.503.965.503 1.702h-1.331c0-.137-.013-.28-.046-.417l.007.013zm-13.647-1.742h1.39v6.067h2.452v1.2h-3.848l.006-7.267zm-2.72 1.2h-2.466v1.71h2.323v1.2h-2.323v1.957h2.557v1.2h-3.946V32.61h3.849l.006 1.2zm-6.373 0h-1.507v6.067h-1.383v-6.06h-1.507v-1.2h4.397v1.194zm-11.396.914c.033-.418.144-.822.32-1.194a1.89 1.89 0 01.71-.776 2.908 2.908 0 012.486 0c.307.182.554.45.711.776a3.5 3.5 0 01.32 1.194 15.851 15.851 0 010 3.046 3.49 3.49 0 01-.32 1.194c-.15.326-.398.593-.711.776a3.055 3.055 0 01-2.485 0 1.709 1.709 0 01-.711-.776 3.563 3.563 0 01-.32-1.187 15.902 15.902 0 010-3.053zm1.35 2.779c.013.28.06.56.137.835.046.182.15.345.287.47a.91.91 0 00.992 0 .907.907 0 00.287-.47c.078-.274.124-.555.137-.835.02-.346.032-.757.032-1.246 0-.49-.012-.9-.032-1.24a3.662 3.662 0 00-.137-.835 1 1 0 00-.287-.476.91.91 0 00-.992 0 .899.899 0 00-.287.476 3.662 3.662 0 00-.137.835c-.02.34-.032.75-.032 1.24 0 .489.013.9.032 1.246zm-7.175-4.886v2.779h1.618v-2.78h1.39v7.268h-1.39v-3.23h-1.618v3.23h-1.39v-7.267h1.39zm-8.147-16.034c0 1.885-1.123 2.805-3.432 2.805H5.694v-5.871h5.18c2.243 0 3.332 1.005 3.332 3.066zm-.914-9.628c0 2.074-1.52 2.511-2.792 2.511H5.694V4.54h4.416c2.166 0 3.177.776 3.177 2.414h.006zm2.681 3.933c1.807-1.096 2.688-2.68 2.688-4.814 0-4.083-2.466-6.066-7.541-6.066H.423a.26.26 0 00-.274.26v23.386c0 .15.117.274.267.274h11.018c3.83 0 8.298-1.846 8.298-7.052 0-2.935-1.331-5.042-3.77-5.994l.012.006zm16.321 6.21c0 2.44-1.109 3.62-3.398 3.62-1.683 0-2.512-.62-2.512-1.885 0-1.265.711-1.891 2.46-2.218a19.18 19.18 0 011.056-.163c.894-.13 1.755-.248 2.388-.58l.006 1.226zm5.056 6.55V11.082c0-3.373-2.525-5.088-7.502-5.088-4.462 0-7.345 1.859-7.913 5.1a.27.27 0 00.046.21c.04.058.104.098.176.11l4.449.757a.268.268 0 00.313-.248c.15-1.546 1.011-2.27 2.727-2.27 1.644 0 2.661.34 2.661 2.029.066 1.246-1.376 1.48-3.738 1.755-3.202.371-7.188.835-7.227 5.603 0 3.3 2.25 5.35 5.877 5.35 2.114 0 3.784-.581 5.095-1.743v1.005c0 .15.117.274.267.274h4.534a.27.27 0 00.267-.274l-.032-.007zM49.503 10.71l1.54-4.247a.29.29 0 00-.013-.221.255.255 0 00-.17-.137 3.3 3.3 0 00-.835-.111c-2.322 0-4.129 1.024-5.055 2.687v-1.95a.27.27 0 00-.268-.274h-4.305a.27.27 0 00-.267.274V23.66c0 .15.117.273.267.273h4.527a.27.27 0 00.267-.273v-7.633c0-3.359 1.35-5.094 4.058-5.153a.261.261 0 00.241-.176l.013.013zm17.756 7.28a.314.314 0 00-.039-.215.277.277 0 00-.176-.118l-4.24-.724a.267.267 0 00-.196.046.264.264 0 00-.104.182c-.209 1.442-.953 3.158-3.327 3.158-2.577 0-3.49-2.616-3.49-5.062 0-.874.176-5.219 3.588-5.219 1.8 0 2.811.874 3.079 2.668a.3.3 0 00.11.183.26.26 0 00.197.045l4.35-.737a.272.272 0 00.222-.313c-.567-3.581-3.672-5.897-7.925-5.897-5.271 0-8.683 3.705-8.683 9.446 0 5.27 3.53 8.95 8.585 8.95 4.272.006 7.214-2.323 8.05-6.393zm13.536-4.893h-6.752c.137-.991.757-3.052 3.464-3.052 1.86 0 2.825.887 3.275 3.053h.013zm5.134 2.453v-.05c.013-2.772-.848-5.29-2.414-7.019-1.474-1.624-3.51-2.479-5.877-2.479-5.023 0-8.683 3.869-8.683 9.211 0 5.492 3.477 9.178 8.683 9.178 3.75 0 6.334-1.703 7.67-5.055a.27.27 0 00-.209-.372l-3.756-.646a.272.272 0 00-.294.17c-.359.906-1.676 1.852-3.261 1.852-2.375 0-3.575-1.194-3.764-3.738h10.88a1.034 1.034 0 001.018-1.05h.007zm7.716 8.102V.28a.27.27 0 00-.267-.273h-4.834a.272.272 0 00-.254.273v23.373c0 .15.117.274.267.274h4.834a.27.27 0 00.267-.274h-.013zM110.162.424a.243.243 0 00.059-.267.24.24 0 00-.222-.157h-4.475a.247.247 0 00-.196.11l-2.733 4.143a.254.254 0 00-.013.255.24.24 0 00.209.13h2.824c.059 0 .118-.02.164-.065l4.383-4.149zm-1.807 14.782c0 1.917-.489 5.127-3.751 5.127-3.261 0-3.718-3.21-3.718-5.127 0-1.918.483-5.16 3.718-5.16 3.236 0 3.751 3.229 3.751 5.16zm5.062 0c0-5.604-3.457-9.211-8.806-9.211-5.35 0-8.78 3.614-8.78 9.21 0 5.597 3.444 9.179 8.773 9.179 5.33 0 8.82-3.601 8.813-9.178z" fill="#CBC7D4"/></g><defs><clipPath id="clip0"><path fill="#fff" transform="translate(.149)" d="M0 0h113.275v40H0z"/></clipPath></defs></svg>