<svg width="123" height="40" fill="none" xmlns="http://www.w3.org/2000/svg"><g clip-path="url(#clip0)" fill="#CBC7D4"><path d="M15.516.004h1.09c3.783.083 7.505 1.604 10.178 4.298-.987 1.007-1.995 1.974-2.961 2.981-1.501-1.357-3.31-2.406-5.285-2.776-2.92-.617-6.065-.061-8.512 1.604-2.673 1.748-4.483 4.709-4.873 7.875-.432 3.126.452 6.416 2.488 8.842 1.953 2.365 4.934 3.845 8.019 3.948 2.878.164 5.88-.72 7.978-2.735 1.645-1.419 2.406-3.578 2.652-5.675-3.413 0-6.826.02-10.24 0V14.13h14.373c.74 4.544-.329 9.664-3.783 12.913-2.303 2.303-5.49 3.66-8.739 3.928-3.146.308-6.395-.288-9.191-1.81-3.352-1.789-6.025-4.811-7.34-8.369-1.234-3.269-1.255-6.97-.104-10.26C2.316 7.53 4.33 4.877 6.921 3.027c2.488-1.83 5.51-2.838 8.595-3.023zM97.97 1.073h4.4v29.362c-1.46 0-2.94.02-4.4-.02.02-9.767 0-19.555 0-29.342zM40.21 11.25c2.715-.513 5.655.063 7.897 1.687 2.035 1.44 3.454 3.701 3.886 6.168.555 2.859-.144 5.984-1.995 8.246-1.994 2.529-5.264 3.886-8.45 3.68-2.92-.164-5.758-1.624-7.485-4.01-1.954-2.631-2.426-6.25-1.357-9.334 1.069-3.31 4.092-5.84 7.505-6.436zm.618 3.908a5.528 5.528 0 00-2.879 1.83c-1.994 2.385-1.871 6.271.33 8.492 1.253 1.275 3.145 1.87 4.893 1.521 1.624-.288 3.043-1.377 3.824-2.817 1.357-2.447.967-5.819-1.11-7.731-1.337-1.234-3.29-1.748-5.058-1.295zm21.178-3.908c3.105-.595 6.498.268 8.822 2.448 3.783 3.392 4.194 9.746.966 13.653-1.953 2.467-5.12 3.824-8.245 3.68-2.982-.082-5.922-1.562-7.69-4.01-1.995-2.693-2.427-6.394-1.296-9.54 1.13-3.208 4.092-5.654 7.443-6.23zm.617 3.908a5.624 5.624 0 00-2.878 1.81c-1.974 2.343-1.892 6.168.226 8.409 1.254 1.337 3.208 1.995 5.017 1.624 1.604-.308 3.043-1.377 3.824-2.817 1.337-2.467.946-5.84-1.151-7.752-1.337-1.233-3.29-1.727-5.038-1.274zm17.869-2.715c2.364-1.48 5.51-1.891 8.06-.616.802.35 1.46.945 2.097 1.542.02-.556 0-1.131.02-1.707 1.379.02 2.756 0 4.154.02v18.136c-.02 2.735-.72 5.634-2.693 7.629-2.16 2.2-5.47 2.878-8.451 2.426-3.187-.473-5.963-2.796-7.197-5.737 1.234-.596 2.53-1.069 3.804-1.624.72 1.686 2.18 3.125 4.01 3.454 1.83.33 3.947-.123 5.14-1.645 1.275-1.562 1.275-3.7 1.213-5.613-.946.925-2.035 1.748-3.351 2.056-2.858.802-6.004-.185-8.204-2.118-2.221-1.933-3.537-4.914-3.414-7.875.062-3.352 1.954-6.58 4.812-8.328zm4.256 2.632c-1.254.206-2.426.905-3.228 1.872-1.933 2.302-1.933 5.983.02 8.245 1.11 1.336 2.9 2.077 4.627 1.892 1.624-.165 3.125-1.193 3.927-2.612 1.357-2.406 1.131-5.675-.699-7.772a5.06 5.06 0 00-4.647-1.625zm22.906-1.583c2.467-2.303 6.271-3.084 9.438-1.87 3.002 1.13 4.914 3.988 5.881 6.928-4.462 1.851-8.904 3.681-13.366 5.532.617 1.172 1.563 2.24 2.838 2.673 1.789.637 3.927.41 5.428-.782.597-.452 1.07-1.048 1.522-1.624 1.131.76 2.262 1.5 3.393 2.262-1.604 2.405-4.298 4.091-7.197 4.359-3.208.39-6.621-.843-8.698-3.352-3.413-3.948-3.084-10.569.761-14.126zm2.2 3.804c-.699 1.008-.987 2.241-.966 3.455 2.981-1.234 5.963-2.468 8.944-3.722-.493-1.152-1.686-1.85-2.899-2.036-1.953-.35-3.989.7-5.079 2.303z"/></g><defs><clipPath id="clip0"><path fill="#fff" transform="translate(.424)" d="M0 0h122.549v40H0z"/></clipPath></defs></svg>